# xmcd CD database file
#
# Track frame offsets:
#	150
#	17525
#	34895
#	53640
#	70417
#	91082
#	109117
#	128795
#	147415
#	162387
#
# Disc length: 2370 seconds
#
# Revision: 2
# Processed by: cddbd v1.5.2PL0 Copyright (c) Steve Scherf et al.
# Submitted via: CDex 1.70beta3
#
DISCID=8309400a
DTITLE=エンジェル隊 [ミルフィーユ・桜葉(CV:新谷 良子)　蘭花・フランボワーズ(CV:田村 ゆかり)　ミント・ブラマンシュ(CV:沢城 みゆき)　フォルテ・シュトーレン(CV:山口 眞弓)　ヴァニラ・
DTITLE=Ｈ(CV:かない みか) ] - ギャラクシーエンジェル ベストヴォーカルCD
DYEAR=2004
DGENRE=Anime
TTITLE0=エンジェル隊 [ミルフィーユ・桜葉(CV:新谷 良子)　蘭花・フランボワーズ(CV:田村 ゆかり)　ミント・ブラマンシュ(CV:沢城 みゆき)　フォルテ・シュトーレン(CV:山口 眞弓)　ヴァニラ・
TTITLE0=Ｈ(CV:かない みか) ] - エンジェル！ LOVE！
TTITLE1=ミルフィーユ・桜葉(CV:新谷 良子) - Happyで行こう！
TTITLE2=蘭花・フランボワーズ(CV:田村 ゆかり) - だって…なんだもん
TTITLE3=ミント・ブラマンシュ(CV:沢城 みゆき) - ぱんぷきん・プリンセス
TTITLE4=ヴァニラ・H(CV:かない みか) - 勇気をちょーだい
TTITLE5=フォルテ・シュトーレン(CV:山口 眞弓) - マグナム＠レボリューション
TTITLE6=ノーマッド(CV:かない みか) - 涙色ノンフィクション
TTITLE7=ドタバタ☆エンジェループ
TTITLE8=ノーマッド(CV:かない みか) - ぐるぐるLOVE
TTITLE9=エンジェル☆うっきー
EXTD=YEAR: 2004
EXTT0=
EXTT1=
EXTT2=
EXTT3=
EXTT4=
EXTT5=
EXTT6=
EXTT7=
EXTT8=
EXTT9=
PLAYORDER=
